HIERARCHY
ROOT Model
{
	OFFSET 0 0 0
	CHANNELS 6 Xposition Yposition Zposition Zrotation Xrotation Yrotation
	JOINT Model1
	{
		OFFSET 0 -2.25479 2.99384
		CHANNELS 3 Zrotation Xrotation Yrotation
		JOINT Model2
		{
			OFFSET 12.111 0 0
			CHANNELS 3 Zrotation Xrotation Yrotation
			JOINT Model3
			{
				OFFSET 11.5502 0 0
				CHANNELS 3 Zrotation Xrotation Yrotation
				JOINT Model4
				{
					OFFSET 11.781 0 0
					CHANNELS 3 Zrotation Xrotation Yrotation
					JOINT Model5
					{
						OFFSET 20.0601 0 0
						CHANNELS 3 Zrotation Xrotation Yrotation
						JOINT Model6
						{
							OFFSET 11.1962 0 0
							CHANNELS 3 Zrotation Xrotation Yrotation
							End Site
							{
								OFFSET 0 0 0
							}
						}
					}
					JOINT Model7
					{
						OFFSET 10.8223 0.417534 3.51114
						CHANNELS 3 Zrotation Xrotation Yrotation
						JOINT Model8
						{
							OFFSET -6.07944 0 0
							CHANNELS 3 Zrotation Xrotation Yrotation
							JOINT Model9
							{
								OFFSET -0.277405 10.39 -0.051239
								CHANNELS 3 Zrotation Xrotation Yrotation
								JOINT Model10
								{
									OFFSET -3.43909 -0.282043 1.86679
									CHANNELS 3 Zrotation Xrotation Yrotation
									JOINT Model11
									{
										OFFSET 13.0269 0 0
										CHANNELS 3 Zrotation Xrotation Yrotation
										JOINT Model12
										{
											OFFSET 10.8866 0 0
											CHANNELS 3 Zrotation Xrotation Yrotation
											JOINT Model13
											{
												OFFSET 16.7317 0 0
												CHANNELS 3 Zrotation Xrotation Yrotation
												JOINT Model14
												{
													OFFSET 11.8292 0 0
													CHANNELS 3 Zrotation Xrotation Yrotation
													JOINT Model15
													{
														OFFSET 4.82751 -3.73566 -0.836517
														CHANNELS 3 Zrotation Xrotation Yrotation
														JOINT Model16
														{
															OFFSET 3.75311 -0.0582886 -0.0186462
															CHANNELS 3 Zrotation Xrotation Yrotation
															JOINT Model17
															{
																OFFSET 2.88689 0.0192337 0.014801
																CHANNELS 3 Zrotation Xrotation Yrotation
																End Site
																{
																	OFFSET 0 0 0
																}
															}
														}
													}
													JOINT Model18
													{
														OFFSET 9.72197 -3.06458 0.23877
														CHANNELS 3 Zrotation Xrotation Yrotation
														JOINT Model19
														{
															OFFSET 4.61131 0 0
															CHANNELS 3 Zrotation Xrotation Yrotation
															JOINT Model20
															{
																OFFSET 2.8969 -7.62939e-006 0
																CHANNELS 3 Zrotation Xrotation Yrotation
																End Site
																{
																	OFFSET 0 0 0
																}
															}
														}
													}
													JOINT Model21
													{
														OFFSET 9.54431 -0.745064 0.588928
														CHANNELS 3 Zrotation Xrotation Yrotation
														JOINT Model22
														{
															OFFSET 5.33978 0 0
															CHANNELS 3 Zrotation Xrotation Yrotation
															JOINT Model23
															{
																OFFSET 3.03619 7.62939e-006 0
																CHANNELS 3 Zrotation Xrotation Yrotation
																End Site
																{
																	OFFSET 0 0 0
																}
															}
														}
													}
													JOINT Model24
													{
														OFFSET 9.47758 1.51286 0.485107
														CHANNELS 3 Zrotation Xrotation Yrotation
														JOINT Model25
														{
															OFFSET 4.96136 7.62939e-006 0
															CHANNELS 3 Zrotation Xrotation Yrotation
															JOINT Model26
															{
																OFFSET 2.51965 0 0
																CHANNELS 3 Zrotation Xrotation Yrotation
																End Site
																{
																	OFFSET 0 0 0
																}
															}
														}
													}
													JOINT Model27
													{
														OFFSET 9.34247 3.34117 -0.239288
														CHANNELS 3 Zrotation Xrotation Yrotation
														JOINT Model28
														{
															OFFSET 3.28259 2.28882e-005 0
															CHANNELS 3 Zrotation Xrotation Yrotation
															JOINT Model29
															{
																OFFSET 2.1292 0 0
																CHANNELS 3 Zrotation Xrotation Yrotation
																End Site
																{
																	OFFSET 0 0 0
																}
															}
														}
													}
												}
											}
										}
									}
								}
							}
						}
					}
					JOINT Model30
					{
						OFFSET 10.8223 0.4179 -3.51108
						CHANNELS 3 Zrotation Xrotation Yrotation
						JOINT Model31
						{
							OFFSET 6.07944 0 0
							CHANNELS 3 Zrotation Xrotation Yrotation
							JOINT Model32
							{
								OFFSET 0.277405 -10.39 0.051239
								CHANNELS 3 Zrotation Xrotation Yrotation
								JOINT Model33
								{
									OFFSET 3.43909 0.282043 -1.86679
									CHANNELS 3 Zrotation Xrotation Yrotation
									JOINT Model34
									{
										OFFSET -13.0269 0 0
										CHANNELS 3 Zrotation Xrotation Yrotation
										JOINT Model35
										{
											OFFSET -10.8866 0 0
											CHANNELS 3 Zrotation Xrotation Yrotation
											JOINT Model36
											{
												OFFSET -16.7317 0 0
												CHANNELS 3 Zrotation Xrotation Yrotation
												JOINT Model37
												{
													OFFSET -11.8292 0 0
													CHANNELS 3 Zrotation Xrotation Yrotation
													JOINT Model38
													{
														OFFSET -4.82751 3.73566 0.836517
														CHANNELS 3 Zrotation Xrotation Yrotation
														JOINT Model39
														{
															OFFSET -3.75311 0.0582886 0.0186462
															CHANNELS 3 Zrotation Xrotation Yrotation
															JOINT Model40
															{
																OFFSET -2.88687 -0.0192337 -0.014801
																CHANNELS 3 Zrotation Xrotation Yrotation
																End Site
																{
																	OFFSET 0 0 0
																}
															}
														}
													}
													JOINT Model41
													{
														OFFSET -9.72198 3.06459 -0.23877
														CHANNELS 3 Zrotation Xrotation Yrotation
														JOINT Model42
														{
															OFFSET -4.6113 0 0
															CHANNELS 3 Zrotation Xrotation Yrotation
															JOINT Model43
															{
																OFFSET -2.89691 0 0
																CHANNELS 3 Zrotation Xrotation Yrotation
																End Site
																{
																	OFFSET 0 0 0
																}
															}
														}
													}
													JOINT Model44
													{
														OFFSET -9.54431 0.745064 -0.588928
														CHANNELS 3 Zrotation Xrotation Yrotation
														JOINT Model45
														{
															OFFSET -5.33978 0 0
															CHANNELS 3 Zrotation Xrotation Yrotation
															JOINT Model46
															{
																OFFSET -3.03619 -1.52588e-005 0
																CHANNELS 3 Zrotation Xrotation Yrotation
																End Site
																{
																	OFFSET 0 0 0
																}
															}
														}
													}
													JOINT Model47
													{
														OFFSET -9.4776 -1.51286 -0.485107
														CHANNELS 3 Zrotation Xrotation Yrotation
														JOINT Model48
														{
															OFFSET -4.96136 -1.52588e-005 0
															CHANNELS 3 Zrotation Xrotation Yrotation
															JOINT Model49
															{
																OFFSET -2.51965 0 0
																CHANNELS 3 Zrotation Xrotation Yrotation
																End Site
																{
																	OFFSET 0 0 0
																}
															}
														}
													}
													JOINT Model50
													{
														OFFSET -9.34247 -3.34118 0.239288
														CHANNELS 3 Zrotation Xrotation Yrotation
														JOINT Model51
														{
															OFFSET -3.28259 -2.28882e-005 0
															CHANNELS 3 Zrotation Xrotation Yrotation
															JOINT Model52
															{
																OFFSET -2.12921 0 0
																CHANNELS 3 Zrotation Xrotation Yrotation
																End Site
																{
																	OFFSET 0 0 0
																}
															}
														}
													}
												}
											}
										}
									}
								}
							}
						}
					}
				}
			}
		}
	}
	JOINT Model53
	{
		OFFSET 4.38025 -2.14632 -1.11517
		CHANNELS 3 Zrotation Xrotation Yrotation
		JOINT Model54
		{
			OFFSET 0 0 4.94998
			CHANNELS 3 Zrotation Xrotation Yrotation
			JOINT Model55
			{
				OFFSET 18.5642 0 0
				CHANNELS 3 Zrotation Xrotation Yrotation
				JOINT Model56
				{
					OFFSET 21.2884 0 0
					CHANNELS 3 Zrotation Xrotation Yrotation
					JOINT Model57
					{
						OFFSET 30.261 0 0
						CHANNELS 3 Zrotation Xrotation Yrotation
						JOINT Model58
						{
							OFFSET 11.7259 0 0
							CHANNELS 3 Zrotation Xrotation Yrotation
							JOINT Model59
							{
								OFFSET 10.682 0 0
								CHANNELS 3 Zrotation Xrotation Yrotation
								End Site
								{
									OFFSET 0 0 0
								}
							}
						}
					}
				}
			}
		}
	}
	JOINT Model60
	{
		OFFSET -4.38025 -2.14632 -1.11517
		CHANNELS 3 Zrotation Xrotation Yrotation
		JOINT Model61
		{
			OFFSET 0 0 -4.94998
			CHANNELS 3 Zrotation Xrotation Yrotation
			JOINT Model62
			{
				OFFSET -18.5642 0 0
				CHANNELS 3 Zrotation Xrotation Yrotation
				JOINT Model63
				{
					OFFSET -21.2884 0 0
					CHANNELS 3 Zrotation Xrotation Yrotation
					JOINT Model64
					{
						OFFSET -30.261 0 0
						CHANNELS 3 Zrotation Xrotation Yrotation
						JOINT Model65
						{
							OFFSET -11.7259 0 0
							CHANNELS 3 Zrotation Xrotation Yrotation
							JOINT Model66
							{
								OFFSET -10.682 0 0
								CHANNELS 3 Zrotation Xrotation Yrotation
								End Site
								{
									OFFSET 0 0 0
								}
							}
						}
					}
				}
			}
		}
	}
}
MOTION
Frames: 5
Frame Time: 0.033333
-646.78 173.893 -721.046 91.9112 -43.6292 94.3627 -180 4.29621e-031 -90 -0.0301897 0.140126 -0.0778827 -0.060192 0.279855 -0.155692 -0.060192 0.280292 -0.155692 0.177418 -0.30002 1.49565 12.9488 0.0518587 0.537717 120.092 75.5343 58.4939 18.1798 4.96799 -1.95784 -167.277 84.4999 48.8109 169.175 -13.1962 -32.7781 3.87504e-006 12.8317 3.04365e-005 0.00504298 0.523233 3.35901 2.11557e-007 0.848935 8.56499e-008 -2.33404 0.00678858 -0.333233 -72.0648 39.0385 39.3397 33.3638 2.10362 14.835 0.588947 0.308273 6.35287 -99.6409 81.413 100.35 -0.0181409 2.7774e-005 -0.117315 -0.124139 0.00241111 -0.799296 -79.8382 79.5773 80.5374 -0.000225787 -0.000220929 2.2089e-005 -0.000956241 0.000122887 -2.74635e-005 -66.7416 80.4058 67.2171 -0.000437147 1.59407e-005 -2.7425e-005 -0.000136623 -0.000109298 -5.47828e-005 -6.42159 81.2158 8.01779 -0.000218592 1.6903e-005 0.000212032 0.000901549 -0.000184809 -0.000218712 -59.9282 75.5373 58.5147 14.9871 5.13448 -1.27772 -167.277 84.4999 48.8109 167.32 -19.5737 -23.4869 7.13783e-006 -0.347528 2.90931e-005 -1.60067 8.49727 -0.0952686 -5.02936e-006 12.7727 2.11267e-006 -1.05788 0.036322 -3.93281 -72.0648 39.0385 39.3397 33.3638 2.10361 14.835 0.588946 0.308273 6.35287 -99.6409 81.413 100.35 -0.0181409 3.01489e-005 -0.117315 -0.124139 0.00241124 -0.799296 -79.8382 79.5773 80.5374 -0.000260624 -0.000218485 2.36926e-005 -0.000956197 0.000123106 -2.71553e-005 -66.7416 80.4058 67.2171 -0.000437105 1.4955e-005 -2.71986e-005 -0.000136568 -0.000109183 -5.44761e-005 -6.42159 81.2158 8.01779 -0.00021853 1.9604e-005 0.0002124 0.000901632 -0.000191211 -0.000218426 0.000811311 0.56661 89.91 -16.2507 -3.07823 -10.718 7.57856e-007 2.03892 -8.90555e-009 38.6483 -1.15914 -2.33543 -5.75449e-008 -1.81312 -3.17668e-008 -71.1605 -6.28311 2.13784 -35.4947 4.62807e-007 -2.99515e-007 -180 -0.566579 -90.09 -14.3849 -2.17596 -0.437271 -1.03117e-006 -2.89531 -4.01014e-008 37.2589 -5.27905 -0.925685 1.72506e-007 -7.99011 -5.11685e-007 -70.4684 -4.08624 1.08535 -35.4947 3.18609e-007 2.8471e-007 
-646.754 173.912 -721.044 91.771 -43.7105 94.2868 -180 4.29621e-031 -90 -0.0444596 0.123818 -0.0743116 -0.0887616 0.247256 -0.148528 -0.0887617 0.247694 -0.148527 -0.229008 -0.193954 1.19675 13.5628 0.116136 0.917694 120.092 75.5343 58.4939 18.2214 4.85753 -1.98235 -167.277 84.4999 48.8109 169.291 -13.2831 -32.7838 3.908e-006 12.7712 3.04292e-005 0.00372259 0.546224 3.3855 2.11505e-007 0.883482 8.56507e-008 -2.33753 0.00417261 -0.204513 -72.0648 39.0385 39.3397 33.3638 2.10362 14.835 0.588947 0.308273 6.35287 -99.6409 81.413 100.35 -0.0181409 2.7774e-005 -0.117315 -0.124139 0.00241111 -0.799296 -79.8382 79.5773 80.5374 -0.000225787 -0.000220929 2.2089e-005 -0.000956241 0.000122887 -2.74635e-005 -66.7416 80.4058 67.2171 -0.000437147 1.59407e-005 -2.7425e-005 -0.000136623 -0.000109298 -5.47828e-005 -6.42159 81.2158 8.01779 -0.000218592 1.6903e-005 0.000212032 0.000901549 -0.000184809 -0.000218712 -59.9282 75.5373 58.5147 14.928 6.44654 -1.03778 -167.277 84.4999 48.8109 168.487 -19.9411 -23.631 7.14382e-006 -0.359315 2.90932e-005 -1.61021 8.24914 -0.09105 -5.01531e-006 12.4003 2.10961e-006 -1.40413 0.0449846 -3.66978 -72.0648 39.0385 39.3397 33.3638 2.10361 14.835 0.588946 0.308273 6.35287 -99.6409 81.413 100.35 -0.0181409 3.01489e-005 -0.117315 -0.124139 0.00241124 -0.799296 -79.8382 79.5773 80.5374 -0.000260624 -0.000218485 2.36926e-005 -0.000956197 0.000123106 -2.71553e-005 -66.7416 80.4058 67.2171 -0.000437105 1.4955e-005 -2.71986e-005 -0.000136568 -0.000109183 -5.44761e-005 -6.42159 81.2158 8.01779 -0.00021853 1.9604e-005 0.0002124 0.000901632 -0.000191211 -0.000218426 0.000811311 0.56661 89.91 -16.3679 -3.32655 -10.9817 7.57821e-007 1.80902 -8.90435e-009 38.5715 -0.985236 -2.2796 -5.74e-008 -1.55182 -3.17625e-008 -71.1332 -6.17006 2.08364 -35.4947 4.6367e-007 -2.98913e-007 -180 -0.566579 -90.09 -14.4297 -2.14388 -0.444757 -1.03113e-006 -2.84268 -4.00996e-008 37.1758 -5.3193 -0.844203 1.71964e-007 -8.05015 -5.11761e-007 -70.428 -4.0914 1.09117 -35.4947 3.26356e-007 2.96598e-007 
-646.716 173.914 -721.019 91.7385 -43.7739 94.2869 -180 4.29621e-031 -90 -0.0520122 0.097717 -0.074285 -0.103901 0.195064 -0.148482 -0.103901 0.195501 -0.148481 -0.470325 -0.0632088 1.09564 14.1209 0.237485 1.09284 120.092 75.5343 58.4939 18.2175 4.56419 -2.02427 -167.277 84.4999 48.8109 169.274 -13.154 -32.6824 3.82758e-006 12.9188 3.04471e-005 0.0112293 0.405423 3.15465 2.11822e-007 0.671962 8.56464e-008 -2.32362 -0.00192675 0.0950157 -72.0648 39.0385 39.3397 33.3638 2.10362 14.835 0.588947 0.308273 6.35287 -99.6409 81.413 100.35 -0.0181409 2.7774e-005 -0.117315 -0.124139 0.00241111 -0.799296 -79.8382 79.5773 80.5374 -0.000225787 -0.000220929 2.2089e-005 -0.000956241 0.000122887 -2.74635e-005 -66.7416 80.4058 67.2171 -0.000437147 1.59407e-005 -2.7425e-005 -0.000136623 -0.000109298 -5.47828e-005 -6.42159 81.2158 8.01779 -0.000218592 1.6903e-005 0.000212032 0.000901549 -0.000184809 -0.000218712 -59.9282 75.5373 58.5147 14.5531 8.91812 -0.520695 -167.277 84.4999 48.8109 170.722 -20.7258 -24.2109 7.15734e-006 -0.385938 2.90933e-005 -1.61936 8.01121 -0.0871013 -5.00186e-006 12.0432 2.10676e-006 -1.73206 0.0535139 -3.53904 -72.0648 39.0385 39.3397 33.3638 2.10361 14.835 0.588946 0.308273 6.35287 -99.6409 81.413 100.35 -0.0181409 3.01489e-005 -0.117315 -0.124139 0.00241124 -0.799296 -79.8382 79.5773 80.5374 -0.000260624 -0.000218485 2.36926e-005 -0.000956197 0.000123106 -2.71553e-005 -66.7416 80.4058 67.2171 -0.000437105 1.4955e-005 -2.71986e-005 -0.000136568 -0.000109183 -5.44761e-005 -6.42159 81.2158 8.01779 -0.00021853 1.9604e-005 0.0002124 0.000901632 -0.000191211 -0.000218426 0.000811311 0.56661 89.91 -16.351 -3.43002 -11.1664 7.57815e-007 1.77016 -8.90416e-009 38.5344 -0.955539 -2.16717 -5.73752e-008 -1.50705 -3.17619e-008 -71.1467 -6.15831 2.07635 -35.4947 4.65212e-007 -2.99778e-007 -180 -0.566579 -90.09 -14.4002 -2.13967 -0.47647 -1.03111e-006 -2.81592 -4.00986e-008 37.1541 -5.26798 -0.731777 1.72661e-007 -7.97289 -5.11664e-007 -70.4749 -4.02006 1.05101 -35.4947 3.4297e-007 3.18631e-007 
-646.67 173.916 -720.978 91.813 -43.8381 94.363 -180 4.29621e-031 -90 -0.0461605 0.0953289 -0.0761633 -0.0921972 0.190282 -0.15225 -0.0921972 0.190719 -0.152249 -0.534058 -0.0291249 1.08903 14.3598 0.278313 1.20686 120.092 75.5343 58.4939 18.0115 4.4893 -1.99426 -167.277 84.4999 48.8109 169.237 -13.2084 -33.035 3.82163e-006 12.9297 3.04484e-005 0.0130735 0.381137 3.28135 2.11876e-007 0.635445 8.56458e-008 -1.92626 -0.00231297 0.137591 -72.0648 39.0385 39.3397 33.3638 2.10362 14.835 0.588947 0.308273 6.35287 -99.6409 81.413 100.35 -0.0181409 2.7774e-005 -0.117315 -0.124139 0.00241111 -0.799296 -79.8382 79.5773 80.5374 -0.000225787 -0.000220929 2.2089e-005 -0.000956241 0.000122887 -2.74635e-005 -66.7416 80.4058 67.2171 -0.000437147 1.59407e-005 -2.7425e-005 -0.000136623 -0.000109298 -5.47828e-005 -6.42159 81.2158 8.01779 -0.000218592 1.6903e-005 0.000212032 0.000901549 -0.000184809 -0.000218712 -59.9282 75.5373 58.5147 14.2262 10.1984 -0.214037 -167.277 84.4999 48.8109 171.875 -21.1552 -24.5675 7.1648e-006 -0.400645 2.90933e-005 -1.61831 8.03912 -0.0875471 -5.00344e-006 12.0851 2.10709e-006 -1.81767 0.0553539 -3.48832 -72.0648 39.0385 39.3397 33.3638 2.10361 14.835 0.588946 0.308273 6.35287 -99.6409 81.413 100.35 -0.0181409 3.01489e-005 -0.117315 -0.124139 0.00241124 -0.799296 -79.8382 79.5773 80.5374 -0.000260624 -0.000218485 2.36926e-005 -0.000956197 0.000123106 -2.71553e-005 -66.7416 80.4058 67.2171 -0.000437105 1.4955e-005 -2.71986e-005 -0.000136568 -0.000109183 -5.44761e-005 -6.42159 81.2158 8.01779 -0.00021853 1.9604e-005 0.0002124 0.000901632 -0.000191211 -0.000218426 0.000811311 0.56661 89.91 -16.2017 -3.38768 -11.1712 7.57829e-007 1.86216 -8.90462e-009 38.5041 -1.0672 -2.11734 -5.74681e-008 -1.67456 -3.17645e-008 -71.1705 -6.23974 2.11497 -35.4947 4.67422e-007 -3.02089e-007 -180 -0.566579 -90.09 -14.2698 -2.13797 -0.463739 -1.03111e-006 -2.82066 -4.00988e-008 37.099 -5.18377 -0.733748 1.73801e-007 -7.84646 -5.11507e-007 -70.5213 -3.97426 1.024 -35.4947 3.6817e-007 3.50488e-007 
-646.634 173.932 -720.929 91.9008 -43.9053 94.4724 -180 4.29621e-031 -90 -0.0338297 0.111667 -0.0737811 -0.0675184 0.22294 -0.147497 -0.0675185 0.223377 -0.147496 -0.535821 -0.108888 1.13305 14.2875 0.212094 1.25504 120.092 75.5343 58.4939 17.8122 4.47002 -1.95754 -167.277 84.4999 48.8109 169.122 -13.3022 -33.4507 3.8607e-006 12.858 3.04397e-005 0.00867415 0.469365 3.55083 2.11678e-007 0.767969 8.56482e-008 -1.49239 -0.00105814 0.081251 -72.0648 39.0385 39.3397 33.3638 2.10362 14.835 0.588947 0.308273 6.35287 -99.6409 81.413 100.35 -0.0181409 2.7774e-005 -0.117315 -0.124139 0.00241111 -0.799296 -79.8382 79.5773 80.5374 -0.000225787 -0.000220929 2.2089e-005 -0.000956241 0.000122887 -2.74635e-005 -66.7416 80.4058 67.2171 -0.000437147 1.59407e-005 -2.7425e-005 -0.000136623 -0.000109298 -5.47828e-005 -6.42159 81.2158 8.01779 -0.000218592 1.6903e-005 0.000212032 0.000901549 -0.000184809 -0.000218712 -59.9282 75.5373 58.5147 14.2773 9.16071 -0.411582 -167.277 84.4999 48.8109 170.815 -20.7737 -24.2977 7.15829e-006 -0.387817 2.90933e-005 -1.60892 8.28374 -0.0916133 -5.01726e-006 12.4522 2.11003e-006 -1.53759 0.0483842 -3.60452 -72.0648 39.0385 39.3397 33.3638 2.10361 14.835 0.588946 0.308273 6.35287 -99.6409 81.413 100.35 -0.0181409 3.01489e-005 -0.117315 -0.124139 0.00241124 -0.799296 -79.8382 79.5773 80.5374 -0.000260624 -0.000218485 2.36926e-005 -0.000956197 0.000123106 -2.71553e-005 -66.7416 80.4058 67.2171 -0.000437105 1.4955e-005 -2.71986e-005 -0.000136568 -0.000109183 -5.44761e-005 -6.42159 81.2158 8.01779 -0.00021853 1.9604e-005 0.0002124 0.000901632 -0.000191211 -0.000218426 0.000811311 0.56661 89.91 -16.0317 -3.25472 -11.0497 7.57853e-007 2.01554 -8.90542e-009 38.4554 -1.24918 -2.1669 -5.76196e-008 -1.9477 -3.17693e-008 -71.164 -6.37149 2.182 -35.4947 4.70292e-007 -3.05826e-007 -180 -0.566579 -90.09 -14.1072 -2.09297 -0.296951 -1.03114e-006 -2.85941 -4.01002e-008 36.9451 -5.2006 -0.942025 1.73572e-007 -7.87187 -5.11538e-007 -70.4662 -4.06005 1.07214 -35.4947 4.01678e-007 3.9185e-007 
